<?xml version="1.0" encoding="utf-8"?>
<!-- Generator: Adobe Illustrator 22.1.0, SVG Export Plug-In . SVG Version: 6.00 Build 0)  -->
<svg version="1.1" id="Layer_1" xmlns="http://www.w3.org/2000/svg" xmlns:xlink="http://www.w3.org/1999/xlink" x="0px" y="0px"
	 viewBox="0 0 148 123.4" style="enable-background:new 0 0 148 123.4;" xml:space="preserve">
<style type="text/css">
	.st0{fill:#203E56;}
</style>
<g>
	<path class="st0" d="M100.7,105.3c-1.6-0.5-2.2,0.7-2.6,1.9c-1.3,3.7-2.6,7.5-4.2,11.9c-1.6-4.2-2.9-7.8-4.3-11.3
		c-0.4-1.1-0.5-2.6-2.3-2.5c-1.7,0-1.8,1.4-2.2,2.5c-1.4,3.5-2.7,6.9-4.4,11.2c-1.7-4.6-3-8.3-4.3-12.1c-0.4-1.3-1.2-2-2.5-1.6
		c-1.6,0.5-0.5,1.6-0.2,2.4c1.5,3.8,3,7.6,4.4,11.5c0.5,1.4,1.1,2,2.6,2c1.7,0,2-1,2.5-2.2c1.2-3.3,2.4-6.5,4-10.7
		c1.6,4.2,2.8,7.5,4,10.9c0.5,1.2,1,2.1,2.6,2.1c1.6,0,2.1-0.9,2.6-2.2c1.4-3.7,3-7.4,4.3-11.1C101.1,107.3,102.7,106,100.7,105.3z"
		/>
	<path class="st0" d="M70.2,115.8c0-0.5,0-1,0-1.5c-0.1-3.3,0.2-6.9-3.5-8.4c-4-1.6-8.3-1.5-12.4,0.2c-1.2,0.5-2.2,1.8-1.3,3
		c0.8,1.1,1.8,0.2,2.6-0.8c1.4-1.4,8.4-1.6,10-0.5c1.7,1.1,2.1,3,1.5,4.6c-0.5,1.4-1.9,0-2.8-0.1c-3.1-0.4-6.2-0.4-9.3,0.2
		c-2.1,0.4-3.2,1.9-3.4,3.9c-0.2,2.2,0.9,3.7,2.9,4.2c3.5,1,7.1,1.3,10.7,0.2c0.8-0.3,1.4-1.2,2.6-0.2c1.6,1.3,2.4,0.3,2.4-1.6
		C70.2,118,70.2,116.9,70.2,115.8z M65.2,119.1c-1.5,0.3-3,0.3-4.3,0.4c-1.6-0.1-3.1-0.1-4.6-0.3c-1.2-0.2-1.9-1-1.9-2.3
		c0-1.4,0.7-2,2-2.2c3-0.4,5.9-0.4,8.9,0.2c1.2,0.2,2.1,0.8,2.1,2.2C67.4,118.4,66.3,118.9,65.2,119.1z"/>
	<path class="st0" d="M119,106.1c-4.1-1.9-8.5-1.6-12.7,0c-1.1,0.4-2.3,1.8-1.4,3c0.8,1.1,1.7,0,2.7-0.7c3-2.1,6.5-1.6,9.6-0.7
		c2.2,0.6,2.1,3.1,2.2,5.5c-4.4-1.3-8.5-1.5-12.6-0.6c-2.1,0.5-3,2-3.1,4.1c-0.1,2,0.8,3.5,2.7,4c3.6,1,7.3,1.4,11,0.2
		c0.7-0.2,1.1-1,1.9-0.8c2.7,0.7,2.7,0.6,2.7-2.1c0-1.2,0-2.5,0-3.7C122,111.2,122.4,107.6,119,106.1z M116.9,119.2
		c-1.3,0.2-2.7,0.2-4.1,0.3c0-0.1,0-0.1,0-0.2c-1.2,0-2.5,0.1-3.7,0c-1.5-0.1-2.7-0.6-2.8-2.4c-0.1-1.9,1.2-2.2,2.7-2.4
		c2.6-0.3,5.2-0.2,7.8,0.2c1.3,0.2,2.6,0.6,2.6,2.1C119.4,118.4,118.2,119,116.9,119.2z"/>
	<path class="st0" d="M46.1,100c-1.3-0.1-1.3,0.8-1.3,1.7c0,1.6-0.1,3.3,0,4.9c0.2,2.1-0.5,2.9-2.7,2.8c-2.9-0.2-5.7,0-8.6-0.1
		c-2.6-0.1-5.7,1.1-7.6-0.5c-1.6-1.4-0.3-4.5-0.6-6.8c-0.1-0.8,0.3-1.9-1.1-2c-1.5-0.1-1.5,1-1.5,2c0,2.9,0,5.7,0,8.6
		c0,2.9,0,5.7,0,8.6c0,0.8-0.1,1.9,1.1,2c1.6,0.1,1.3-1.1,1.4-2c0.2-2.4-1.2-5.9,0.6-7.1c1.8-1.2,5-0.4,7.7-0.5c1.1,0,2.2,0,3.4,0
		c7.4,0,7.4,0,7.8,7.3c0,0.1,0,0.3,0,0.4c0,0.8-0.2,1.8,1.1,1.9c1.2,0.1,1.4-0.7,1.4-1.7c0-6,0-12,0-18
		C47.3,100.7,47.1,100.1,46.1,100z"/>
	<path class="st0" d="M141.4,109c-0.2-1.8-1.1-3.2-2.8-3.6c-3.5-0.7-7.2-1.3-10.1,1.8c0,0,0,0,0,0c-0.4-0.8-0.2-2.1-1.7-1.9
		c-1.6,0.2-1.1,1.4-1.1,2.3c-0.1,3.7-0.1,7.4,0,11.2c0,1-0.6,2.5,1.3,2.4c1.7-0.1,1.1-1.6,1.2-2.6c0.3-3.5-0.9-7.2,1.3-10.5
		c3.5-0.3,7.5-3.2,10,2c0.1,0.3,0.9,0.4,1.3,0.4C141.6,110.3,141.5,109.6,141.4,109z"/>
	<path class="st0" d="M93.9,54.4c0-0.1-0.1-0.1-0.1-0.2c0,0,0,0,0,0C93.7,54.3,93.8,54.4,93.9,54.4C93.8,54.4,93.8,54.4,93.9,54.4z"
		/>
	<path class="st0" d="M67.7,101c7.4-4.4,14.8-8.8,22.1-13.3c3.4-2.2,6.6-4,10.8-1.7c1.3,0.7,3.2,1,4.7,0.9c4-0.3,6.3,1.4,7.7,5
		c0.7,1.8,1.7,1.9,3.4,0.9c5.2-3.2,10.4-6.4,15.7-9.4c2-1.1,1.8-2.1,0.7-3.7c-1.7-2.5-3.1-5.1-4.7-7.7c-3.2-5.3-3.1-5.3,2.1-8.5
		c6.7-4.1,7.8-8.3,3.8-14.9c-8.1-13.5-16.2-26.9-24.3-40.4C105.5,1,101.5,0,94.3,4.3c-14,8.4-28,16.8-42,25.2
		c-0.4-0.2-0.4-0.5-0.2-0.9c2.7-5.8,0.5-11.9-5.2-14.2c-5.4-2.2-11.7,0.7-13.7,6.3c-2,5.5,1.2,11.4,7,13.3c1,0.3,2.3,0,2.9,1.3
		c0,0,0,0,0,0l0,0c-4.1,2.4-8.2,4.7-12.2,7.2c-5,3.1-6.1,7.7-3.1,12.9c3.6,6.1,7.3,12.2,11,18.3c-0.7,0.5-1.3,1-2,1.6
		c-4.3,3.5-5.4,9.1-2.6,13.6c2.9,4.6,8.2,6.2,13.3,4c0.8-0.3,1.6-0.6,2.4-0.9c1,1.8,2,3.7,3.1,5.5C56.8,103.8,61.2,104.9,67.7,101z
		 M118,28.7c1.1,0.1,1.8,0.9,1.6,2c-0.1,0.9-0.8,1.5-1.8,1.5c-1.1,0-1.6-0.8-1.9-1.8C116.3,29.4,116.9,28.6,118,28.7z M67.9,37.6
		c3-0.1,5.4,2.3,5.5,5.3c0.1,3.2-2.4,5.8-5.5,5.7c-2.9,0-5.3-2.6-5.3-5.6C62.6,40,64.8,37.6,67.9,37.6z M42.8,29.5
		c-3-0.1-5.5-2.6-5.4-5.5c0-2.9,2.6-5.4,5.5-5.4c3.2,0,5.7,2.6,5.6,5.7C48.4,27.2,45.9,29.5,42.8,29.5z M38.3,86.4
		c-2-3.1-0.7-6.2,3.2-8.2l0,0c2.8,2.4,4.8,5.3,5.3,9C43.5,89.6,40.2,89.3,38.3,86.4z M50.1,75.8C50.1,75.8,50.1,75.8,50.1,75.8
		c1-2-0.5-3.4-1.3-4.8c-3.4-5.9-7-11.7-10.5-17.6c-0.9-1.5-1.6-2.8,0.5-4c6.7-3.8,12.9-8.3,19.9-11.5c-0.2,0.6-0.3,1.3-0.5,1.9
		c-2.4,7.6,3.8,14.9,11.6,13.6c3.7-0.6,5.8-3.4,8.1-5.9c1-3.3-0.3-6.5-0.1-9.7c0.9-0.1,2.1,0.3,2.2-1.3c0-0.9-0.6-1.4-1.3-1.5
		c-1.8-0.1-1.8,1.3-1.9,2.6c-2.8-3.9-6.6-4.9-10.9-4.6c10.5-5.8,20.5-12.3,30.9-18.3c3.5-2.1,3.8-2,5.9,1.4c2,3.3,4,6.6,6,9.9
		c4.9,8.4,10.2,16.6,15.1,24.9c1.1,1.9,1.9,3.5-0.6,5.1c-2.5,1.6-3.5,0.2-4.6-1.7c-1.4-2.5-2.7-5-4.6-7.3c-1.5-1.8-3.4-2.4-5.2-0.7
		c-1.8,1.7-1.1,3.6,0,5.4c0.1,0.1,0.2,0.3,0.2,0.4c0.1-0.1,0.3-0.3,0.4-0.4c0.1,0.1,0.3,0.1,0.3,0.2c0.4,1.2,2.7,2.4,1,3.4
		c-1,0.6-1.6-1.5-2.1-2.7c0.1-0.2,0.3-0.3,0.4-0.5c-0.1-0.1-0.1-0.2-0.2-0.3c-0.8-1.2-1.2-2.7-2.1-3.9c-1.2-1.5-2.4-3.1-4.6-2.3
		c-2,0.7-2.9,2.2-2.4,4.4c0.1,0.2,0.2,0.4,0.3,0.6c0.1-0.1,0.2-0.3,0.4-0.4c1.3,2.2,2.5,4.3,3.8,6.5c0.3,0.6,1.3,1.1,0.4,1.8
		c-0.9,0.6-1.2-0.3-1.5-1c-1.2-2.1-2.3-4.2-3.5-6.4c0.1-0.1,0.3-0.3,0.4-0.4c0,0,0,0,0-0.1c-2.4-4.9-4.1-5.5-7.6-2.5
		c-0.2,0.6-0.3,1.1-0.3,1.6c0.1-0.7,0.1-1.4,0.8-1.7c-0.6,2.2,0.6,4,1.6,5.8c1.2,2.1,2.5,4.2,3.7,6.3c0.3,0.6,1.6,1.4,0.3,2.1
		c-1,0.5-1.1-0.7-1.4-1.3c-1.2-2-2.3-4.1-3.5-6.1c-0.7-1.3-1.4-2.5-2.1-3.8c0.2-0.1,0.4-0.3,0.5-0.5c0,0,0-0.1-0.1-0.1
		c-1.9-3.3-3.8-6.7-6-9.8c-1.1-1.5-2.6-2.3-4.5-1.4c-2,1-2.3,2.8-1.7,4.8c0.4,1.3,1.3,2.4,1.9,3.6c3.4,5.6,6.8,11.1,10.1,16.7
		c-0.7-1.1-1.4-2.2-2.2-3.2c-1-1.2-2.3-2-4-1.3C83.6,60.5,83,62,83,63.7c0,1.3,0.6,2.4,1.2,3.5c1.2,2,2.4,4.1,3.7,6.1
		c1.2,1.8,1,3.2-1,4.3c-7.6,4.5-15.2,9.1-22.8,13.7c-1.7,1-2.8,0.5-3.6-1.1c-1.3-2.4-2.9-4.6-4.4-7c-0.6-1-1.1-2.2-2.4-2.3
		C53.9,78.3,53,76.4,50.1,75.8z"/>
	<path class="st0" d="M27.4,68.6c0.1-5.6-4.8-10.4-10.5-10.5C11.3,58,6.6,62.7,6.5,68.3C6.5,74,11.3,78.8,17,78.8
		C22.5,78.8,27.3,74.1,27.4,68.6z M16.9,73.9c-3.1,0-5.5-2.3-5.5-5.4c0-3.1,2.3-5.4,5.4-5.4c3.1,0,5.4,2.3,5.4,5.4
		C22.4,71.6,20.1,73.8,16.9,73.9z"/>
	<path class="st0" d="M16.7,49.3c5.7,0.1,10.6-4.7,10.6-10.4c0-5.6-4.7-10.3-10.2-10.3c-5.7,0-10.4,4.4-10.6,9.9
		C6.3,44.3,11,49.2,16.7,49.3z M17.1,33.4c3.1,0.2,5.5,2.8,5.2,6c-0.2,3-2.8,5.2-5.8,5c-3-0.2-5.2-2.7-5.1-5.7
		C11.6,35.7,14.2,33.2,17.1,33.4z"/>
	<path class="st0" d="M68.6,78.8c5.7,0,10.6-4.9,10.5-10.5c-0.1-5.5-5-10.3-10.4-10.2c-5.8,0.1-10.6,4.9-10.5,10.5
		C58.4,74.1,63.1,78.8,68.6,78.8z M68.7,63c3.1,0,5.4,2.3,5.4,5.4c0,3.1-2.2,5.4-5.4,5.4c-3.1,0-5.4-2.3-5.5-5.4
		C63.2,65.3,65.6,63,68.7,63z"/>
	<path class="st0" d="M80.9,49.6c0.4-2.2-0.6-2.8-2.6-2.3C77.7,49.7,78.1,51,80.9,49.6z"/>
	<path class="st0" d="M87.1,39.8c1,0,1.5-0.7,1.6-1.7c-0.3-1-0.8-1.5-1.9-1.4c-0.9,0.2-1.3,0.8-1.2,1.6
		C85.8,39.1,86.3,39.8,87.1,39.8z"/>
	<path class="st0" d="M87.4,42.6c0,1,0.5,1.5,1.5,1.7c0.9-0.2,1.6-0.7,1.5-1.7c0-1-0.7-1.5-1.7-1.4C87.9,41.3,87.4,41.7,87.4,42.6z"
		/>
	<path class="st0" d="M83.3,37.3c0.9-0.2,1.6-0.7,1.5-1.7c-0.1-0.9-0.7-1.4-1.5-1.4c-0.8,0-1.4,0.5-1.5,1.3
		C81.7,36.6,82.4,37.1,83.3,37.3z"/>
</g>
</svg>
